<?xml version="1.0" encoding="utf-8"?>
<!-- Generator: Adobe Illustrator 21.0.0, SVG Export Plug-In . SVG Version: 6.00 Build 0)  -->
<svg width="75" height="75" version="1.1" id="Capa_1" xmlns="http://www.w3.org/2000/svg" xmlns:xlink="http://www.w3.org/1999/xlink" x="0px" y="0px"
	 viewBox="0 0 500 500" style="enable-background:new 0 0 500 500;" xml:space="preserve">
<style type="text/css">
	.st0{fill:#F6F6F6;}
	.st1{fill:#F6F6F6;stroke:#F6F6F6;stroke-miterlimit:10;}
	.st2{fill:#29466B;}
	.st3{fill:#29466B;stroke:#29466B;stroke-width:2;stroke-miterlimit:10;}
	.st4{fill:#B1B1B0;}
</style>
<g>
	<g>
		<path class="st2" d="M386.4,73.8C311.1-1.5,189.3-1.5,114,73.8c-76,76-76,197.8-0.7,273.1l136.5,135.8l136.5-136.5
			C461.6,270.8,462.4,149.1,386.4,73.8L386.4,73.8z"/>
		<path class="st0" d="M249.8,374.3L249.8,374.3c-90.8,0-165.4-73.9-165.4-164.7c0-91.5,74.6-165.4,165.4-165.4
			c91.5,0,165.4,73.9,165.4,165.4C415.2,300.4,341.3,374.3,249.8,374.3L249.8,374.3z"/>
	</g>
	<g>
		<polygon class="st2" points="235.9,68.4 198.5,110.7 204.6,342 235.9,341.9 		"/>
		<polygon class="st2" points="256.2,125.7 292.2,147.5 292.2,342 275.4,341.7 275.4,175.8 256.2,166.7 		"/>
		<g>
			<polygon class="st3" points="308.5,172 307.2,172 307.2,160.8 298.3,154.9 299,153.9 308.5,160.1 			"/>
		</g>
		<g>
			<polygon class="st3" points="307.8,214.2 306.6,214.2 306.6,203 297.8,197.3 298.5,196.2 307.8,202.4 			"/>
		</g>
		<g>
			<polygon class="st3" points="307.8,258.6 306.7,258.6 306.7,248.8 299,243.7 299.6,242.8 307.8,248.2 			"/>
		</g>
		<polygon class="st2" points="229.5,63.1 191.5,106.3 197.6,342.1 229.5,342.1 		"/>
		<polygon class="st0" points="229.5,63.1 309.2,125.9 309.3,342.1 287,342.1 287,143.8 250.3,121.6 249.9,342.1 229.5,342.1 		"/>
		<polygon class="st2" points="250.3,121.6 287,143.8 287,342.1 269.9,341.8 269.9,172.6 250.2,163.4 		"/>
		<g>
			<polygon class="st2" points="304.3,164.2 303,164.2 303,152.7 294,146.7 294.7,145.6 304.3,152 			"/>
		</g>
		<g>
			<polygon class="st2" points="302.9,202.6 301.6,202.6 301.6,191.3 292.7,185.4 293.4,184.3 302.9,190.6 			"/>
		</g>
		<g>
			<polygon class="st2" points="303.7,234.4 302.7,234.4 302.7,225.6 295.7,221 296.3,220.1 303.7,225 			"/>
		</g>
	</g>
</g>
</svg>
